<svg width="35" height="21" viewBox="0 0 35 21" fill="none" xmlns="http://www.w3.org/2000/svg">
<path d="M33 7H21C20.7348 7 20.4804 7.10536 20.2929 7.29289C20.1054 7.48043 20 7.73478 20 8V16C20 16.2652 20.1054 16.5196 20.2929 16.7071C20.4804 16.8946 20.7348 17 21 17H25V19H23V20H31V19H29V17H33C33.2652 17 33.5196 16.8946 33.7071 16.7071C33.8946 16.5196 34 16.2652 34 16V8C34 7.73478 33.8946 7.48043 33.7071 7.29289C33.5196 7.10536 33.2652 7 33 7ZM28 19H26V17H28V19ZM33 16H21V8H33V16Z" fill="#098DF1"/>
<path d="M6.5 1V3L5.5 3.5L4 2L2 4L3.5 5.5L3 6.5H1V9.5H3L3.5 10.5L2 12L4 14L5.5 12.5L6.5 13V15H9.5V13L10.5 12.5L12 14L14 12L12.5 10.5L13 9.5H15V6.5H13L12.5 5.5L14 4L12 2L10.5 3.5L9.5 3V1H6.5Z" stroke="#098DF1" stroke-linecap="round" stroke-linejoin="round"/>
<path d="M8 10C9.10457 10 10 9.10457 10 8C10 6.89543 9.10457 6 8 6C6.89543 6 6 6.89543 6 8C6 9.10457 6.89543 10 8 10Z" stroke="#098DF1" stroke-linecap="round" stroke-linejoin="round"/>
</svg>
