<svg width="90" height="26" viewBox="0 0 90 26" fill="none" xmlns="http://www.w3.org/2000/svg">
<rect width="13.259" height="8.76499" rx="2" transform="matrix(0.816003 -0.578048 0.314099 0.94939 41.8623 17.6786)" fill="#098DF1"/>
<path d="M16.8118 4.89566L10.2898 15.5868L6.35993 3.64314L16.8118 4.89566Z" fill="white"/>
<path d="M0.962 18.0419V8.47385H4.901C6.14033 8.47385 7.11533 8.75119 7.826 9.30585C8.53667 9.85185 8.892 10.6579 8.892 11.7239V11.9319C8.892 12.6165 8.74033 13.1929 8.437 13.6609C8.13367 14.1289 7.70033 14.4842 7.137 14.7269L9.464 18.0419H6.682L4.758 15.1299H3.38V18.0419H0.962ZM5.044 10.5019H3.38V13.2709H5.044C5.46867 13.2709 5.80667 13.1495 6.058 12.9069C6.318 12.6555 6.448 12.3175 6.448 11.8929C6.448 11.4682 6.318 11.1302 6.058 10.8789C5.80667 10.6275 5.46867 10.5019 5.044 10.5019ZM13.9291 18.3019C13.0884 18.3019 12.3691 18.1372 11.7711 17.8079C11.1731 17.4699 10.7181 17.0235 10.4061 16.4689C10.0941 15.9142 9.93809 15.3032 9.93809 14.6359V14.3239C9.93809 13.6219 10.0984 12.9935 10.4191 12.4389C10.7484 11.8755 11.2121 11.4292 11.8101 11.0999C12.4081 10.7705 13.1144 10.6059 13.9291 10.6059C14.7438 10.6059 15.4501 10.7705 16.0481 11.0999C16.6461 11.4292 17.1054 11.8755 17.4261 12.4389C17.7554 12.9935 17.9201 13.6219 17.9201 14.3239V14.6359C17.9201 15.3032 17.7641 15.9142 17.4521 16.4689C17.1401 17.0235 16.6851 17.4699 16.0871 17.8079C15.4978 18.1372 14.7784 18.3019 13.9291 18.3019ZM13.9291 16.3259C14.4664 16.3259 14.8694 16.1525 15.1381 15.8059C15.4154 15.4592 15.5541 15.0172 15.5541 14.4799C15.5541 13.9252 15.4111 13.4702 15.1251 13.1149C14.8478 12.7595 14.4491 12.5819 13.9291 12.5819C13.4091 12.5819 13.0061 12.7595 12.7201 13.1149C12.4428 13.4702 12.3041 13.9252 12.3041 14.4799C12.3041 15.0172 12.4384 15.4592 12.7071 15.8059C12.9844 16.1525 13.3918 16.3259 13.9291 16.3259ZM19.2154 18.0419V10.8659H21.0874V12.7379C21.3561 11.3339 22.1361 10.6319 23.4274 10.6319H23.5314C24.6148 10.6319 25.3384 11.1302 25.7024 12.1269C26.0664 11.1302 26.7901 10.6319 27.8734 10.6319H27.9774C28.7748 10.6319 29.3901 10.9092 29.8234 11.4639C30.2568 12.0185 30.4734 12.8505 30.4734 13.9599V18.0419H28.1074V13.8949C28.1074 13.5655 28.0164 13.2925 27.8344 13.0759C27.6611 12.8505 27.4098 12.7379 27.0804 12.7379C26.7511 12.7379 26.4911 12.8505 26.3004 13.0759C26.1184 13.2925 26.0274 13.5742 26.0274 13.9209V18.0419H23.6614V13.8949C23.6614 13.5655 23.5704 13.2925 23.3884 13.0759C23.2151 12.8505 22.9638 12.7379 22.6344 12.7379C22.3051 12.7379 22.0451 12.8505 21.8544 13.0759C21.6724 13.2925 21.5814 13.5742 21.5814 13.9209V18.0419H19.2154Z" fill="#098DF1"/>
<path d="M32.1671 18.0419V8.55185H36.1321L39.2911 16.1179H39.4861V8.55185H41.7481V18.0419H37.7571L34.5981 10.4759H34.4031V18.0419H32.1671ZM46.516 18.2759C45.8487 18.2759 45.2594 18.1199 44.748 17.8079C44.2454 17.4959 43.851 17.0669 43.565 16.5209C43.2877 15.9662 43.149 15.3422 43.149 14.6489V14.3369C43.149 13.6349 43.2834 13.0065 43.552 12.4519C43.8207 11.8972 44.1977 11.4595 44.683 11.1389C45.177 10.8182 45.762 10.6579 46.438 10.6579C47.452 10.6579 48.2017 11.0392 48.687 11.8019V8.55185H51.053V18.0419H49.181V16.5209C48.9644 17.0755 48.6264 17.5089 48.167 17.8209C47.7164 18.1242 47.166 18.2759 46.516 18.2759ZM47.153 16.3259C47.5864 16.3259 47.959 16.1829 48.271 15.8969C48.583 15.6022 48.739 15.1862 48.739 14.6489V14.2069C48.739 13.8602 48.661 13.5699 48.505 13.3359C48.3577 13.1019 48.1627 12.9242 47.92 12.8029C47.686 12.6729 47.4304 12.6079 47.153 12.6079C46.6764 12.6079 46.282 12.7812 45.97 13.1279C45.6667 13.4745 45.515 13.9295 45.515 14.4929C45.515 15.0475 45.6667 15.4939 45.97 15.8319C46.282 16.1612 46.6764 16.3259 47.153 16.3259ZM54.0691 10.2939C53.6445 10.2939 53.3281 10.1855 53.1201 9.96885C52.9208 9.74352 52.8211 9.45752 52.8211 9.11085C52.8211 8.76419 52.9208 8.48252 53.1201 8.26585C53.3281 8.04052 53.6445 7.92785 54.0691 7.92785C54.5025 7.92785 54.8188 8.04052 55.0181 8.26585C55.2175 8.48252 55.3171 8.76419 55.3171 9.11085C55.3171 9.45752 55.2175 9.74352 55.0181 9.96885C54.8188 10.1855 54.5025 10.2939 54.0691 10.2939ZM53.1071 18.0419V12.5819H52.1971V10.8659H55.4731V18.0419H53.1071ZM61.8405 18.2759C61.1645 18.2759 60.5882 18.1155 60.1115 17.7949C59.6348 17.4742 59.2925 17.0062 59.0845 16.3909V18.0419H57.2125V8.55185H59.5785V11.9579C60.0898 11.0912 60.8828 10.6579 61.9575 10.6579C62.6075 10.6579 63.1665 10.8139 63.6345 11.1259C64.1112 11.4379 64.4752 11.8669 64.7265 12.4129C64.9865 12.9589 65.1165 13.5829 65.1165 14.2849V14.5969C65.1165 15.2989 64.9822 15.9272 64.7135 16.4819C64.4535 17.0365 64.0808 17.4742 63.5955 17.7949C63.1102 18.1155 62.5252 18.2759 61.8405 18.2759ZM61.1645 16.3259C61.6325 16.3259 62.0138 16.1525 62.3085 15.8059C62.6032 15.4505 62.7505 14.9955 62.7505 14.4409C62.7505 13.8862 62.6032 13.4442 62.3085 13.1149C62.0225 12.7769 61.6412 12.6079 61.1645 12.6079C60.8785 12.6079 60.6098 12.6729 60.3585 12.8029C60.1158 12.9329 59.9165 13.1235 59.7605 13.3749C59.6045 13.6262 59.5265 13.9295 59.5265 14.2849V14.7269C59.5265 15.0649 59.6088 15.3552 59.7735 15.5979C59.9382 15.8319 60.1462 16.0139 60.3975 16.1439C60.6488 16.2652 60.9045 16.3259 61.1645 16.3259ZM65.7092 13.1539V11.8019H66.2032C66.5239 11.8019 66.7579 11.7369 66.9052 11.6069C67.0525 11.4682 67.1305 11.1822 67.1392 10.7489C67.0612 10.7662 66.9789 10.7749 66.8922 10.7749C66.5629 10.7749 66.2855 10.6752 66.0602 10.4759C65.8435 10.2765 65.7352 9.99485 65.7352 9.63085C65.7352 9.29285 65.8392 9.00252 66.0472 8.75985C66.2639 8.51719 66.5802 8.39585 66.9962 8.39585C67.2649 8.39585 67.5075 8.46085 67.7242 8.59085C67.9495 8.71219 68.1272 8.92019 68.2572 9.21485C68.3959 9.50085 68.4652 9.89085 68.4652 10.3849V10.5539C68.4652 11.4552 68.2615 12.1139 67.8542 12.5299C67.4469 12.9459 66.8489 13.1539 66.0602 13.1539H65.7092ZM72.0946 18.2759C71.0546 18.2759 70.2356 18.0635 69.6376 17.6389C69.0396 17.2055 68.719 16.5989 68.6756 15.8189H70.7556C70.7903 16.0355 70.9246 16.2219 71.1586 16.3779C71.3926 16.5339 71.722 16.6119 72.1466 16.6119C72.45 16.6119 72.71 16.5685 72.9266 16.4819C73.152 16.3865 73.2646 16.2349 73.2646 16.0269C73.2646 15.8449 73.178 15.6975 73.0046 15.5849C72.8313 15.4635 72.515 15.3812 72.0556 15.3379L71.5616 15.2859C70.643 15.1905 69.967 14.9392 69.5336 14.5319C69.1003 14.1245 68.8836 13.6132 68.8836 12.9979C68.8836 12.4692 69.0136 12.0359 69.2736 11.6979C69.5336 11.3512 69.8933 11.0912 70.3526 10.9179C70.812 10.7445 71.3363 10.6579 71.9256 10.6579C72.8876 10.6579 73.6633 10.8702 74.2526 11.2949C74.842 11.7109 75.154 12.3132 75.1886 13.1019H73.1086C73.074 12.8852 72.957 12.7032 72.7576 12.5559C72.5583 12.3999 72.2723 12.3219 71.8996 12.3219C71.631 12.3219 71.41 12.3695 71.2366 12.4649C71.072 12.5602 70.9896 12.6945 70.9896 12.8679C70.9896 13.0499 71.0676 13.1842 71.2236 13.2709C71.3883 13.3575 71.6483 13.4225 72.0036 13.4659L72.4976 13.5179C73.4163 13.6132 74.1226 13.8689 74.6166 14.2849C75.1193 14.6922 75.3706 15.2295 75.3706 15.8969C75.3706 16.6335 75.076 17.2142 74.4866 17.6389C73.906 18.0635 73.1086 18.2759 72.0946 18.2759Z" fill="white"/>
</svg>
