<svg width="20" height="21" viewBox="0 0 20 21" fill="none" xmlns="http://www.w3.org/2000/svg">
<path d="M11.28 1.97501C11.3548 2.23361 11.3766 2.50465 11.3441 2.77188C11.3116 3.03912 11.2255 3.29704 11.0909 3.5302C10.9564 3.76336 10.7762 3.96696 10.561 4.12879C10.3459 4.29062 10.1003 4.40736 9.839 4.47201L9.255 4.61601C9.1614 5.21487 9.16342 5.82478 9.261 6.42301L9.801 6.55301C10.0646 6.6165 10.3125 6.73291 10.5297 6.89519C10.7469 7.05746 10.9288 7.26219 11.0644 7.49695C11.2001 7.73172 11.2865 7.9916 11.3186 8.26082C11.3507 8.53003 11.3277 8.80296 11.251 9.06301L11.065 9.69501C11.504 10.081 12.005 10.394 12.549 10.616L13.042 10.098C13.2288 9.90133 13.4537 9.74472 13.703 9.63771C13.9523 9.53069 14.2207 9.4755 14.492 9.4755C14.7633 9.4755 15.0317 9.53069 15.281 9.63771C15.5303 9.74472 15.7552 9.90133 15.942 10.098L16.441 10.623C16.9824 10.4028 17.4836 10.0943 17.924 9.71001L17.726 9.02401C17.6514 8.76547 17.6297 8.49452 17.6623 8.22741C17.6948 7.96029 17.781 7.70249 17.9155 7.46945C18.05 7.2364 18.2302 7.0329 18.4453 6.87114C18.6603 6.70937 18.9058 6.59267 19.167 6.52801L19.751 6.38401C19.8449 5.78484 19.8429 5.17454 19.745 4.57601L19.205 4.44601C18.9414 4.38252 18.6935 4.2661 18.4763 4.10383C18.2591 3.94156 18.0772 3.73682 17.9416 3.50206C17.8059 3.2673 17.7195 3.00741 17.6874 2.7382C17.6553 2.46898 17.6783 2.19606 17.755 1.93601L17.942 1.30601C17.5017 0.917979 16.9998 0.60604 16.457 0.383007L15.964 0.902007C15.7772 1.09868 15.5523 1.25529 15.303 1.36231C15.0537 1.46932 14.7853 1.52451 14.514 1.52451C14.2427 1.52451 13.9743 1.46932 13.725 1.36231C13.4757 1.25529 13.2508 1.09868 13.064 0.902007L12.565 0.376007C12.022 0.596007 11.522 0.906007 11.082 1.28901L11.28 1.97501ZM14.503 7.00001C13.703 7.00001 13.053 6.32801 13.053 5.50001C13.053 4.67101 13.703 4.00001 14.503 4.00001C15.303 4.00001 15.953 4.67101 15.953 5.50001C15.953 6.32801 15.303 7.00001 14.503 7.00001ZM8.002 5.50001C8.002 5.33201 8.008 5.16601 8.02 5.00101H1.75C1.28587 5.00101 0.840752 5.18538 0.512563 5.51357C0.184375 5.84176 0 6.28688 0 6.75101V19.246C0 20.213 0.784 20.996 1.75 20.996H9.249V20.999H18.249C18.7131 20.999 19.1582 20.8146 19.4864 20.4864C19.8146 20.1583 19.999 19.7131 19.999 19.249L20 8.97201C19.5987 9.60569 19.0913 10.1655 18.5 10.627L18.499 19.248C18.499 19.3143 18.4727 19.3779 18.4258 19.4248C18.3789 19.4717 18.3153 19.498 18.249 19.498H10.749V10.808C10.1722 10.3991 9.66566 9.89922 9.249 9.32801V19.496H1.75C1.6837 19.496 1.62011 19.4697 1.57322 19.4228C1.52634 19.3759 1.5 19.3123 1.5 19.246V6.75101C1.5 6.6847 1.52634 6.62111 1.57322 6.57423C1.62011 6.52735 1.6837 6.50101 1.75 6.50101H8.078C8.02706 6.16978 8.00165 5.83513 8.002 5.50001ZM14.992 17.25C14.992 17.0511 14.913 16.8603 14.7723 16.7197C14.6317 16.579 14.4409 16.5 14.242 16.5H12.742L12.639 16.507C12.4507 16.5329 12.2792 16.6294 12.1593 16.7769C12.0394 16.9244 11.9799 17.112 11.993 17.3016C12.0061 17.4913 12.0907 17.6689 12.2298 17.7985C12.3688 17.9282 12.5519 18.0002 12.742 18H14.242L14.344 17.993C14.5237 17.9686 14.6885 17.8798 14.8079 17.7432C14.9272 17.6066 14.993 17.4314 14.993 17.25H14.992ZM7.995 17.25C7.995 17.0511 7.91598 16.8603 7.77533 16.7197C7.63468 16.579 7.44391 16.5 7.245 16.5H5.741L5.64 16.507C5.45175 16.5329 5.28035 16.6293 5.16043 16.7767C5.04051 16.9241 4.98102 17.1115 4.99397 17.3011C5.00693 17.4907 5.09136 17.6683 5.23021 17.798C5.36906 17.9278 5.55198 17.9999 5.742 18H7.244L7.346 17.993C7.52574 17.9686 7.69053 17.8798 7.80986 17.7432C7.92918 17.6066 7.99496 17.4314 7.995 17.25Z" fill="#098DF1"/>
</svg>
