<svg width="35" height="23" viewBox="0 0 35 23" fill="none" xmlns="http://www.w3.org/2000/svg">
<path d="M17.8125 0.54303H1.1875C0.59375 0.54303 0 1.22766 0 1.9123V17.3167C0 18.0014 0.59375 18.686 1.1875 18.686H7.125V20.0553C7.125 21.0061 6.0553 21.4245 4.75 21.4245V22.4513H14.25V21.4242C12.9444 21.4242 11.875 21.0057 11.875 20.0549V18.6856H17.8125C18.4062 18.6856 19 18.001 19 17.3164V1.9123C19 1.22766 18.4062 0.54303 17.8125 0.54303ZM18.3667 17.3167C18.3667 17.5975 18.0557 17.9557 17.8125 17.9557H1.1875C0.943983 17.9557 0.633333 17.5975 0.633333 17.3167V15.9475H18.3667V17.3167Z" fill="#098DF1"/>
<path d="M29.5 7H22.5C22.2348 7 21.9804 7.10536 21.7929 7.29289C21.6054 7.48043 21.5 7.73478 21.5 8V20C21.5 20.2652 21.6054 20.5196 21.7929 20.7071C21.9804 20.8946 22.2348 21 22.5 21H29.5C29.7652 21 30.0196 20.8946 30.2071 20.7071C30.3946 20.5196 30.5 20.2652 30.5 20V8C30.5 7.73478 30.3946 7.48043 30.2071 7.29289C30.0196 7.10536 29.7652 7 29.5 7ZM26.5 20H25.5V19H26.5V20ZM22.5 18V8H29.5V18H22.5Z" fill="#098DF1"/>
</svg>
